{
    "asset" : {
        "generator" : "Khronos glTF Blender I/O v3.2.40",
        "version" : "2.0"
    },
    "scene" : 0,
    "scenes" : [
        {
            "name" : "Scene",
            "nodes" : [
                0,
                1,
                2,
                3,
                4,
                5,
                6,
                7,
                8,
                9,
                10
            ]
        }
    ],
    "nodes" : [
        {
            "mesh" : 0,
            "name" : "Cylinder",
            "scale" : [
                1.882752776145935,
                1.9527168273925781,
                1.2567213773727417
            ],
            "translation" : [
                -0.04107197746634483,
                2.5650346279144287,
                0.006065012887120247
            ]
        },
        {
            "mesh" : 1,
            "name" : "Cylinder.001",
            "scale" : [
                0.11784626543521881,
                2.7358241081237793,
                0.1263914555311203
            ],
            "translation" : [
                -0.054482460021972656,
                3.3500149250030518,
                0.07397529482841492
            ]
        },
        {
            "mesh" : 2,
            "name" : "Cylinder.002",
            "scale" : [
                1.6000431776046753,
                1.4864557981491089,
                0.9566470384597778
            ],
            "translation" : [
                -0.02073725499212742,
                2.1374051570892334,
                -0.027795150876045227
            ]
        },
        {
            "mesh" : 3,
            "name" : "Cylinder.003",
            "rotation" : [
                -0.7002190947532654,
                0.005336195230484009,
                0.03317702189087868,
                0.7131367921829224
            ],
            "scale" : [
                0.10956952720880508,
                1.3510205745697021,
                0.1263914406299591
            ],
            "translation" : [
                -0.4945741593837738,
                6.373546123504639,
                2.0426833629608154
            ]
        },
        {
            "name" : "Empty",
            "rotation" : [
                -0.5681064128875732,
                -0.5663997530937195,
                0.4002501368522644,
                0.442997008562088
            ],
            "scale" : [
                1.0020314455032349,
                1.6373831033706665,
                1.0730245113372803
            ],
            "translation" : [
                -0.09546712040901184,
                6.500064373016357,
                0.9139353632926941
            ]
        },
        {
            "mesh" : 4,
            "name" : "Text",
            "rotation" : [
                0.4905793368816376,
                -0.48690974712371826,
                0.5862497091293335,
                0.42256611585617065
            ],
            "translation" : [
                -0.5055128335952759,
                2.0683846473693848,
                2.850287437438965
            ]
        },
        {
            "name" : "Empty.001",
            "rotation" : [
                -0.6835512518882751,
                -0.037732817232608795,
                -0.035425834357738495,
                0.7280651926994324
            ],
            "scale" : [
                1.0232794284820557,
                2.3167760372161865,
                1.4757359027862549
            ],
            "translation" : [
                -0.4938946068286896,
                2.3183915615081787,
                2.8271565437316895
            ]
        },
        {
            "name" : "Empty.002",
            "rotation" : [
                -0.7071564197540283,
                0,
                0,
                0.7070572376251221
            ],
            "scale" : [
                1,
                1.9411696195602417,
                1
            ],
            "translation" : [
                0.0436045303940773,
                5.3870038986206055,
                1.9351375102996826
            ]
        },
        {
            "mesh" : 5,
            "name" : "Text.001",
            "rotation" : [
                0.5901958346366882,
                -0.39933210611343384,
                0.41932615637779236,
                0.5624663233757019
            ],
            "translation" : [
                0.03321671485900879,
                5.170405387878418,
                1.8391776084899902
            ]
        },
        {
            "name" : "Empty.003",
            "rotation" : [
                -0.9029343128204346,
                0,
                0,
                0.4297786355018616
            ],
            "scale" : [
                1,
                1.9411696195602417,
                1
            ],
            "translation" : [
                0.3303831219673157,
                8.094482421875,
                2.0719072818756104
            ]
        },
        {
            "mesh" : 6,
            "name" : "Text.002",
            "rotation" : [
                0.485212117433548,
                -0.5191720128059387,
                0.5399168729782104,
                0.4511312246322632
            ],
            "translation" : [
                0.3145577907562256,
                7.860619068145752,
                1.9994895458221436
            ]
        }
    ],
    "materials" : [
        {
            "doubleSided" : true,
            "name" : "Material.002",
            "pbrMetallicRoughness" : {
                "baseColorFactor" : [
                    0.800000011920929,
                    0.800000011920929,
                    0.800000011920929,
                    1
                ],
                "metallicFactor" : 0,
                "roughnessFactor" : 0.5
            }
        },
        {
            "doubleSided" : true,
            "name" : "Material.004",
            "pbrMetallicRoughness" : {
                "baseColorFactor" : [
                    0.800000011920929,
                    0.800000011920929,
                    0.800000011920929,
                    1
                ],
                "metallicFactor" : 0,
                "roughnessFactor" : 0.5
            }
        },
        {
            "doubleSided" : true,
            "name" : "Material.006",
            "pbrMetallicRoughness" : {
                "baseColorFactor" : [
                    0.800000011920929,
                    0.800000011920929,
                    0.800000011920929,
                    1
                ],
                "metallicFactor" : 0,
                "roughnessFactor" : 0.5
            }
        }
    ],
    "meshes" : [
        {
            "name" : "Cylinder",
            "primitives" : [
                {
                    "attributes" : {
                        "POSITION" : 0,
                        "NORMAL" : 1,
                        "TEXCOORD_0" : 2
                    },
                    "indices" : 3
                }
            ]
        },
        {
            "name" : "Cylinder.001",
            "primitives" : [
                {
                    "attributes" : {
                        "POSITION" : 4,
                        "NORMAL" : 5,
                        "TEXCOORD_0" : 6
                    },
                    "indices" : 7
                }
            ]
        },
        {
            "name" : "Cylinder.003",
            "primitives" : [
                {
                    "attributes" : {
                        "POSITION" : 8,
                        "NORMAL" : 9,
                        "TEXCOORD_0" : 10
                    },
                    "indices" : 3,
                    "material" : 0
                }
            ]
        },
        {
            "name" : "Cylinder.004",
            "primitives" : [
                {
                    "attributes" : {
                        "POSITION" : 11,
                        "NORMAL" : 12,
                        "TEXCOORD_0" : 13
                    },
                    "indices" : 7,
                    "material" : 1
                }
            ]
        },
        {
            "name" : "Text.001",
            "primitives" : [
                {
                    "attributes" : {
                        "POSITION" : 14,
                        "NORMAL" : 15,
                        "TEXCOORD_0" : 16
                    },
                    "indices" : 17,
                    "material" : 2
                }
            ]
        },
        {
            "name" : "Text.002",
            "primitives" : [
                {
                    "attributes" : {
                        "POSITION" : 18,
                        "NORMAL" : 19,
                        "TEXCOORD_0" : 20
                    },
                    "indices" : 21
                }
            ]
        },
        {
            "name" : "Text.003",
            "primitives" : [
                {
                    "attributes" : {
                        "POSITION" : 22,
                        "NORMAL" : 23,
                        "TEXCOORD_0" : 24
                    },
                    "indices" : 25
                }
            ]
        }
    ],
    "accessors" : [
        {
            "bufferView" : 0,
            "componentType" : 5126,
            "count" : 160,
            "max" : [
                1,
                1,
                1.5430041551589966
            ],
            "min" : [
                -1,
                -1,
                -1.5430041551589966
            ],
            "type" : "VEC3"
        },
        {
            "bufferView" : 1,
            "componentType" : 5126,
            "count" : 160,
            "type" : "VEC3"
        },
        {
            "bufferView" : 2,
            "componentType" : 5126,
            "count" : 160,
            "type" : "VEC2"
        },
        {
            "bufferView" : 3,
            "componentType" : 5123,
            "count" : 282,
            "type" : "SCALAR"
        },
        {
            "bufferView" : 4,
            "componentType" : 5126,
            "count" : 192,
            "max" : [
                1,
                1,
                1
            ],
            "min" : [
                -1,
                -1,
                -1
            ],
            "type" : "VEC3"
        },
        {
            "bufferView" : 5,
            "componentType" : 5126,
            "count" : 192,
            "type" : "VEC3"
        },
        {
            "bufferView" : 6,
            "componentType" : 5126,
            "count" : 192,
            "type" : "VEC2"
        },
        {
            "bufferView" : 7,
            "componentType" : 5123,
            "count" : 372,
            "type" : "SCALAR"
        },
        {
            "bufferView" : 8,
            "componentType" : 5126,
            "count" : 160,
            "max" : [
                1,
                1,
                1.5430041551589966
            ],
            "min" : [
                -1,
                -1,
                -1.5430041551589966
            ],
            "type" : "VEC3"
        },
        {
            "bufferView" : 9,
            "componentType" : 5126,
            "count" : 160,
            "type" : "VEC3"
        },
        {
            "bufferView" : 10,
            "componentType" : 5126,
            "count" : 160,
            "type" : "VEC2"
        },
        {
            "bufferView" : 11,
            "componentType" : 5126,
            "count" : 192,
            "max" : [
                1,
                1,
                1
            ],
            "min" : [
                -1,
                -1,
                -1
            ],
            "type" : "VEC3"
        },
        {
            "bufferView" : 12,
            "componentType" : 5126,
            "count" : 192,
            "type" : "VEC3"
        },
        {
            "bufferView" : 13,
            "componentType" : 5126,
            "count" : 192,
            "type" : "VEC2"
        },
        {
            "bufferView" : 14,
            "componentType" : 5126,
            "count" : 540,
            "max" : [
                2.6780002117156982,
                0,
                0.009000000543892384
            ],
            "min" : [
                0,
                0,
                -0.6820000410079956
            ],
            "type" : "VEC3"
        },
        {
            "bufferView" : 15,
            "componentType" : 5126,
            "count" : 540,
            "type" : "VEC3"
        },
        {
            "bufferView" : 16,
            "componentType" : 5126,
            "count" : 540,
            "type" : "VEC2"
        },
        {
            "bufferView" : 17,
            "componentType" : 5123,
            "count" : 1179,
            "type" : "SCALAR"
        },
        {
            "bufferView" : 18,
            "componentType" : 5126,
            "count" : 571,
            "max" : [
                2.3330001831054688,
                0,
                0.009000000543892384
            ],
            "min" : [
                0.04000000283122063,
                0,
                -0.6910000443458557
            ],
            "type" : "VEC3"
        },
        {
            "bufferView" : 19,
            "componentType" : 5126,
            "count" : 571,
            "type" : "VEC3"
        },
        {
            "bufferView" : 20,
            "componentType" : 5126,
            "count" : 571,
            "type" : "VEC2"
        },
        {
            "bufferView" : 21,
            "componentType" : 5123,
            "count" : 1242,
            "type" : "SCALAR"
        },
        {
            "bufferView" : 22,
            "componentType" : 5126,
            "count" : 1535,
            "max" : [
                7.2129998207092285,
                0,
                0.009000000543892384
            ],
            "min" : [
                0.07600000500679016,
                0,
                -0.6914074420928955
            ],
            "type" : "VEC3"
        },
        {
            "bufferView" : 23,
            "componentType" : 5126,
            "count" : 1535,
            "type" : "VEC3"
        },
        {
            "bufferView" : 24,
            "componentType" : 5126,
            "count" : 1535,
            "type" : "VEC2"
        },
        {
            "bufferView" : 25,
            "componentType" : 5123,
            "count" : 3279,
            "type" : "SCALAR"
        }
    ],
    "bufferViews" : [
        {
            "buffer" : 0,
            "byteLength" : 1920,
            "byteOffset" : 0
        },
        {
            "buffer" : 0,
            "byteLength" : 1920,
            "byteOffset" : 1920
        },
        {
            "buffer" : 0,
            "byteLength" : 1280,
            "byteOffset" : 3840
        },
        {
            "buffer" : 0,
            "byteLength" : 564,
            "byteOffset" : 5120
        },
        {
            "buffer" : 0,
            "byteLength" : 2304,
            "byteOffset" : 5684
        },
        {
            "buffer" : 0,
            "byteLength" : 2304,
            "byteOffset" : 7988
        },
        {
            "buffer" : 0,
            "byteLength" : 1536,
            "byteOffset" : 10292
        },
        {
            "buffer" : 0,
            "byteLength" : 744,
            "byteOffset" : 11828
        },
        {
            "buffer" : 0,
            "byteLength" : 1920,
            "byteOffset" : 12572
        },
        {
            "buffer" : 0,
            "byteLength" : 1920,
            "byteOffset" : 14492
        },
        {
            "buffer" : 0,
            "byteLength" : 1280,
            "byteOffset" : 16412
        },
        {
            "buffer" : 0,
            "byteLength" : 2304,
            "byteOffset" : 17692
        },
        {
            "buffer" : 0,
            "byteLength" : 2304,
            "byteOffset" : 19996
        },
        {
            "buffer" : 0,
            "byteLength" : 1536,
            "byteOffset" : 22300
        },
        {
            "buffer" : 0,
            "byteLength" : 6480,
            "byteOffset" : 23836
        },
        {
            "buffer" : 0,
            "byteLength" : 6480,
            "byteOffset" : 30316
        },
        {
            "buffer" : 0,
            "byteLength" : 4320,
            "byteOffset" : 36796
        },
        {
            "buffer" : 0,
            "byteLength" : 2358,
            "byteOffset" : 41116
        },
        {
            "buffer" : 0,
            "byteLength" : 6852,
            "byteOffset" : 43476
        },
        {
            "buffer" : 0,
            "byteLength" : 6852,
            "byteOffset" : 50328
        },
        {
            "buffer" : 0,
            "byteLength" : 4568,
            "byteOffset" : 57180
        },
        {
            "buffer" : 0,
            "byteLength" : 2484,
            "byteOffset" : 61748
        },
        {
            "buffer" : 0,
            "byteLength" : 18420,
            "byteOffset" : 64232
        },
        {
            "buffer" : 0,
            "byteLength" : 18420,
            "byteOffset" : 82652
        },
        {
            "buffer" : 0,
            "byteLength" : 12280,
            "byteOffset" : 101072
        },
        {
            "buffer" : 0,
            "byteLength" : 6558,
            "byteOffset" : 113352
        }
    ],
    "buffers" : [
        {
            "byteLength" : 119912,
            "uri" : "data:application/octet-stream;base64,"
        }
    ]
}
